<svg xmlns="http://www.w3.org/2000/svg" viewBox="0 0 512 512" role="img" aria-label="Cicero philosopher profile mark">
  <title>Cicero — Philosopher Profile Mark</title>
  <g fill="currentColor">
    <!-- Single-piece silhouette using evenodd to create interior cuts for a minimal line look -->
    <path fill-rule="evenodd" d="M298.9 87.2c-24.6-9.1-51.7-9.7-78.2-2.3-24.9 7-45.8 21.3-62.1 40.1-14.0 16.1-24.3 35.2-30.5 56.2-3.7 12.6-5.9 25.6-6.6 38.7-1.1 19.6 1.4 39.5 7.5 57.9 1.8 5.6 3.9 11 6.2 16.3-23.6 24.9-35.0 46.7-37.4 71.3-2.8 28.1 9.2 51.9 37.8 73.6 36.6 27.9 97.0 44.1 169.3 44.1 57.5 0 106.0-11.2 136.8-31.7 25.6-17.0 38.5-39.1 38.5-65.7 0-24.1-10.9-47.2-33.4-69.9-6.2-6.3-13.1-12.2-20.6-17.8 5.2-22.0 6.0-45.2 2.4-68.1-7.0-43.8-30.1-82.1-65.1-107.7-14.5-10.6-29.9-18.3-45.6-23.1zm-18.0 41.4c22.8 8.2 43.2 22.9 58.2 41.9 27.7 34.6 34.6 79.4 19.0 119.4-1.5 3.8-0.5 8.1 2.5 10.9 11.8 11.0 21.2 22.1 27.8 33.1 8.7 14.6 12.7 29.0 12.7 42.7 0 17.9-9.3 32.9-28.4 45.6-25.8 17.1-69.1 27.3-122.0 27.3-59.9 0-111.5-12.7-142.7-34.9-19.2-13.7-27.7-28.4-26.2-45.0 1.9-20.1 14.7-38.9 40.6-59.9 3.3-2.7 4.3-7.3 2.6-11.1-7.4-16.3-11.4-34.6-10.5-53.1 2.8-53.4 35.7-95.9 86.0-110.2 27.3-7.8 55.6-6.9 80.4 2.3zM319 203.7c-7.8-5.1-17.2-7.4-27.8-6.8-8.7 0.5-14.3 7.6-13.2 15.3 1.0 7.4 8.0 12.4 15.4 11.5 5.9-0.8 11.1 0.2 15.3 2.9 6.9 4.5 11.7 12.8 13.3 23.3 1.3 8.9-0.6 18.1-5.2 25.6-9.5 15.4-29.1 25.4-52.5 26.5-8.3 0.4-16.6 0.1-24.6-1.0-5.8-0.8-10.9 3.5-11.3 9.3-0.5 7.4 4.6 13.9 11.9 15.1 5.7 0.9 11.7 1.4 17.8 1.6-19.8 12.2-41.6 20.8-64.0 25.2-6.6 1.3-10.9 7.6-9.6 14.2 1.2 6.3 7.0 10.6 13.4 9.8 44.1-5.6 85.1-25.5 116.0-56.2 17.6-17.5 29.6-37.5 35.0-58.3 5.1-19.8 3.9-40.4-3.6-58.3-4.9-11.8-12.6-21.7-22-27.9zM233.5 175.2c-3.7-5.9-11.5-7.6-17.4-3.9-16.1 10.1-27.5 25.3-31.9 42.7-1.8 7.2 2.6 14.5 9.8 16.3 7.1 1.8 14.3-2.5 16.2-9.6 2.9-11.3 9.9-20.9 19.6-27.1 6-3.8 7.6-11.7 3.7-18.4zM188.7 347.9c-5.1-3.6-12.2-2.3-15.8 2.8-3.6 5.1-2.3 12.2 2.8 15.8 23.0 16.5 51.8 25.5 82.7 25.5 6.2 0 11.3-5.1 11.3-11.3s-5.1-11.3-11.3-11.3c-25.8 0-49.5-7.5-69.7-21.5z"/>
  </g>
</svg>